<?xml version="1.0" encoding="UTF-8"?>
<svg width="100" height="100" viewBox="0 0 100 100" xmlns="http://www.w3.org/2000/svg">
  <g fill="#FFFFFF" fill-rule="evenodd">
    <!-- Coffee Bean 1 -->
    <path d="M20,20 C25,15 35,15 40,20 C45,25 45,35 40,40 C35,45 25,45 20,40 C15,35 15,25 20,20 Z M22,22 C26,18 34,18 38,22 C42,26 42,34 38,38 C34,42 26,42 22,38 C18,34 18,26 22,22 Z" />
    
    <!-- Coffee Bean 2 (rotated) -->
    <path d="M70,20 C75,15 85,15 90,20 C95,25 95,35 90,40 C85,45 75,45 70,40 C65,35 65,25 70,20 Z M72,22 C76,18 84,18 88,22 C92,26 92,34 88,38 C84,42 76,42 72,38 C68,34 68,26 72,22 Z" transform="rotate(45 80 30)" />
    
    <!-- Coffee Bean 3 -->
    <path d="M20,70 C25,65 35,65 40,70 C45,75 45,85 40,90 C35,95 25,95 20,90 C15,85 15,75 20,70 Z M22,72 C26,68 34,68 38,72 C42,76 42,84 38,88 C34,92 26,92 22,88 C18,84 18,76 22,72 Z" transform="rotate(90 30 80)" />
    
    <!-- Coffee Bean 4 -->
    <path d="M70,70 C75,65 85,65 90,70 C95,75 95,85 90,90 C85,95 75,95 70,90 C65,85 65,75 70,70 Z M72,72 C76,68 84,68 88,72 C92,76 92,84 88,88 C84,92 76,92 72,88 C68,84 68,76 72,72 Z" transform="rotate(135 80 80)" />
    
    <!-- Small Coffee Bean in Center -->
    <path d="M45,45 C47.5,42.5 52.5,42.5 55,45 C57.5,47.5 57.5,52.5 55,55 C52.5,57.5 47.5,57.5 45,55 C42.5,52.5 42.5,47.5 45,45 Z M46,46 C48,44 52,44 54,46 C56,48 56,52 54,54 C52,56 48,56 46,54 C44,52 44,48 46,46 Z" />
  </g>
</svg>
