<?xml version="1.0" encoding="UTF-8"?>
<svg width="800px" height="800px" viewBox="0 0 800 800" xmlns="http://www.w3.org/2000/svg">
  <defs>
    <linearGradient id="bean-gradient" x1="0%" y1="0%" x2="100%" y2="100%">
      <stop offset="0%" style="stop-color:#3E2723;stop-opacity:1" />
      <stop offset="100%" style="stop-color:#4E342E;stop-opacity:1" />
    </linearGradient>
  </defs>
  <g fill="url(#bean-gradient)" transform="rotate(15, 400, 400)">
    <!-- Large Coffee Bean -->
    <path d="M400,200 C500,150 650,200 700,300 C750,400 750,500 700,600 C650,700 500,750 400,700 C300,750 150,700 100,600 C50,500 50,400 100,300 C150,200 300,150 400,200 Z" />
    
    <!-- Inner Detail -->
    <path d="M400,300 C450,275 525,300 550,350 C575,400 575,450 550,500 C525,550 450,575 400,550 C350,575 275,550 250,500 C225,450 225,400 250,350 C275,300 350,275 400,300 Z" fill="#2E1E19" />
    
    <!-- Highlight -->
    <path d="M275,350 C325,325 375,325 425,350 C475,375 475,425 425,450 C375,475 325,475 275,450 C225,425 225,375 275,350 Z" fill="#5D4037" opacity="0.7" />
  </g>
</svg>
