<svg width="400" height="400" viewBox="0 0 400 400" xmlns="http://www.w3.org/2000/svg">
  <filter id="noise" x="0%" y="0%" width="100%" height="100%">
    <feTurbulence type="fractalNoise" baseFrequency="0.05" numOctaves="3" result="noise"/>
    <feColorMatrix type="matrix" values="1 0 0 0 0 0 1 0 0 0 0 0 1 0 0 0 0 0 0.5 0" in="noise" result="fractalNoise"/>
    <feComposite operator="in" in="fractalNoise" in2="SourceGraphic" result="noisyImage"/>
  </filter>
  
  <rect width="400" height="400" fill="#8D6E63"/>
  
  <!-- Horizontal wood grain -->
  <g filter="url(#noise)">
    <rect x="0" y="0" width="400" height="40" fill="#A1887F" opacity="0.4"/>
    <rect x="0" y="40" width="400" height="35" fill="#8D6E63" opacity="0.5"/>
    <rect x="0" y="75" width="400" height="45" fill="#795548" opacity="0.6"/>
    <rect x="0" y="120" width="400" height="30" fill="#6D4C41" opacity="0.4"/>
    <rect x="0" y="150" width="400" height="40" fill="#5D4037" opacity="0.5"/>
    <rect x="0" y="190" width="400" height="35" fill="#4E342E" opacity="0.6"/>
    <rect x="0" y="225" width="400" height="45" fill="#3E2723" opacity="0.4"/>
    <rect x="0" y="270" width="400" height="40" fill="#5D4037" opacity="0.5"/>
    <rect x="0" y="310" width="400" height="50" fill="#795548" opacity="0.6"/>
    <rect x="0" y="360" width="400" height="40" fill="#8D6E63" opacity="0.4"/>
  </g>
  
  <!-- Knots and details -->
  <ellipse cx="100" cy="80" rx="15" ry="10" fill="#3E2723" opacity="0.8" transform="rotate(15, 100, 80)"/>
  <ellipse cx="280" cy="220" rx="20" ry="12" fill="#3E2723" opacity="0.7" transform="rotate(-10, 280, 220)"/>
  <ellipse cx="150" cy="320" rx="10" ry="8" fill="#3E2723" opacity="0.7"/>
  
  <!-- Wood grain lines -->
  <path d="M0 50 Q 100 65, 200 50 T 400 65" stroke="#5D4037" stroke-width="1" fill="none" opacity="0.3"/>
  <path d="M0 100 Q 120 85, 240 105 T 400 95" stroke="#5D4037" stroke-width="1" fill="none" opacity="0.3"/>
  <path d="M0 150 Q 80 145, 180 160 T 400 155" stroke="#5D4037" stroke-width="1" fill="none" opacity="0.3"/>
  <path d="M0 210 Q 140 195, 250 215 T 400 205" stroke="#5D4037" stroke-width="1" fill="none" opacity="0.3"/>
  <path d="M0 270 Q 110 285, 220 265 T 400 275" stroke="#5D4037" stroke-width="1" fill="none" opacity="0.3"/>
  <path d="M0 330 Q 90 325, 190 340 T 400 330" stroke="#5D4037" stroke-width="1" fill="none" opacity="0.3"/>
</svg>
